<?xml version="1.0" encoding="UTF-8"?>
<svg width="36px" height="36px" viewBox="0 0 36 36" version="1.1" xmlns="http://www.w3.org/2000/svg" xmlns:xlink="http://www.w3.org/1999/xlink">
    <title>上传文件的安全提示 logo</title>
    <g id="上传文件的安全提示-logo" stroke="none" stroke-width="1" fill="none" fill-rule="evenodd">
        <rect id="蓝色" fill="#338FE5" fill-rule="nonzero" x="0" y="0" width="36" height="36" rx="3"></rect>
        <path d="M18,5 C25.1797017,5 31,10.8202983 31,18 L30.9955915,18.2523947 C30.2980505,17.9865326 29.6274985,17.7048061 28.9839357,17.4072152 C28.6756492,11.6070545 23.8758422,7 18,7 C11.9248678,7 7,11.9248678 7,18 C7,24.0751322 11.9248678,29 18,29 C19.1484016,29 20.2557002,28.824017 21.296399,28.4975478 C21.8112804,29.0992177 22.3081575,29.6294644 22.7873845,30.089663 C21.306283,30.6771976 19.6908388,31 18,31 C10.8202983,31 5,25.1797017 5,18 C5,10.8202983 10.8202983,5 18,5 Z M27.4908547,19.1279988 C28.5693158,19.7334002 29.8304015,20.2436594 31.2747722,20.6564197 C31.6650544,20.7679514 31.9450944,21.1024084 31.9927853,21.4977563 L32,21.6180254 L32,25.8767617 C32,26.0970782 31.9272658,26.3112318 31.793062,26.4859564 C30.0175097,28.7976106 28.4777882,29.9999999 27.0006013,29.9999999 C25.5235049,29.9999999 23.9834788,28.7976995 22.2071871,26.4861299 C22.0997659,26.3463379 22.031693,26.1812906 22.0087606,26.0080324 L22.0001158,25.8768155 L22.0001158,21.6179291 C22.0001158,21.1728668 22.2942504,20.781368 22.7217174,20.6574634 C24.0458184,20.2736626 25.3161967,19.7599757 26.5338442,19.1160105 C26.8341724,18.9571789 27.1945994,18.9616939 27.4908547,19.1279988 Z M26.99,21.129 L26.4541771,21.3880011 C25.9413293,21.6266144 25.420232,21.8451343 24.8909374,22.0435402 L24.3589123,22.2352406 L24,22.354 L24,25.532 L24.1575902,25.7288006 C25.2868136,27.1162322 26.2044558,27.8489323 26.8136106,27.9789115 L26.9122634,27.9950028 L27.0006013,28 C27.5703388,28 28.4934664,27.3381168 29.6568916,25.9535778 L29.8425708,25.728952 L29.999,25.533 L29.999,22.358 L29.6937703,22.2599169 C29.0242391,22.0355516 28.3909315,21.7884501 27.7939056,21.5184055 L27.3529399,21.3115669 L26.99,21.129 Z M28.5856232,23.3043063 C28.8648575,23.5569404 28.9098457,23.9718749 28.7069291,24.2760017 L28.6386033,24.3636424 L27.3654209,25.7708795 C27.1184266,26.0438801 26.7149618,26.0938081 26.4116742,25.9037497 L26.3239499,25.8395157 L25.366932,25.027271 C25.0511278,24.7592401 25.0123998,24.2859482 25.2804307,23.9701439 C25.5240951,23.6830492 25.9373967,23.6249431 26.2477971,23.8181265 L26.3375577,23.8836426 L26.74,24.225 L27.5262871,23.3572864 C27.8041846,23.0501287 28.2784656,23.0264087 28.5856232,23.3043063 Z M22,10 L24.522,12.365 L25,12.8125416 L25.0011314,17.3266846 C24.3422662,17.6322229 23.6753295,17.917706 23.0003214,18.1831336 L23,13.5891819 L21,11.8572323 L14,11.8750359 L14,23.1487565 L19.937,23.132 L19.937,24.979 L13,25 C12.8153846,25 12.3692308,24.9250003 12.2215385,24.7750008 C12.0738462,24.6375012 12,24.4375019 12,24.2500026 L12,10.7500486 C12,10.5625492 12.0861538,10.3750499 12.2215385,10.2250504 C12.3569231,10.0750509 12.5538462,10.0000512 12.7384615,10.0000512 L21.999,10.006 L22,10 Z" id="形状结合" fill="#FFFFFF" fill-rule="nonzero"></path>
        <rect id="矩形" fill="#FFFFFF" x="15" y="15" width="6" height="2"></rect>
        <rect id="矩形备份" fill="#FFFFFF" x="15" y="19" width="6" height="2"></rect>
    </g>
</svg>